<svg width="188" height="282" viewBox="0 0 188 282" fill="none" xmlns="http://www.w3.org/2000/svg">
<path d="M47 282C72.944 282 94 260.944 94 235V188H47C21.056 188 0 209.056 0 235C0 260.944 21.056 282 47 282Z" fill="#0ACF83"/>
<path d="M0 141C0 115.056 21.056 94 47 94H94V188H47C21.056 188 0 166.944 0 141Z" fill="#A259FF"/>
<path d="M0 47C0 21.056 21.056 0 47 0H94V94H47C21.056 94 0 72.944 0 47Z" fill="#F24E1E"/>
<path d="M94 0H141C166.944 0 188 21.056 188 47C188 72.944 166.944 94 141 94H94V0Z" fill="#FF7262"/>
<path d="M188 141C188 166.944 166.944 188 141 188C115.056 188 94 166.944 94 141C94 115.056 115.056 94 141 94C166.944 94 188 115.056 188 141Z" fill="#1ABCFE"/>
</svg>
