<svg width="344" height="515" viewBox="0 0 344 515" fill="none" xmlns="http://www.w3.org/2000/svg">
<g clip-path="url(#clip0_214_4)">
<g opacity="0.6" filter="url(#filter0_f_214_4)">
<path d="M114.5 443C146.24 443 172 417.24 172 385.5V328H114.5C82.76 328 57 353.76 57 385.5C57 417.24 82.76 443 114.5 443Z" fill="#0ACF83"/>
<path d="M57 270.5C57 238.76 82.76 213 114.5 213H172V328H114.5C82.76 328 57 302.24 57 270.5Z" fill="#A259FF"/>
<path d="M57 155.5C57 123.76 82.76 98 114.5 98H172V213H114.5C82.76 213 57 187.24 57 155.5Z" fill="#F24E1E"/>
<path d="M172 98H229.5C261.24 98 287 123.76 287 155.5C287 187.24 261.24 213 229.5 213H172V98Z" fill="#FF7262"/>
<path d="M287 270.5C287 302.24 261.24 328 229.5 328C197.76 328 172 302.24 172 270.5C172 238.76 197.76 213 229.5 213C261.24 213 287 238.76 287 270.5Z" fill="#1ABCFE"/>
</g>
<path d="M125 398C150.944 398 172 376.944 172 351V304H125C99.056 304 78 325.056 78 351C78 376.944 99.056 398 125 398Z" fill="#0ACF83"/>
<path d="M78 257C78 231.056 99.056 210 125 210H172V304H125C99.056 304 78 282.944 78 257Z" fill="#A259FF"/>
<path d="M78 163C78 137.056 99.056 116 125 116H172V210H125C99.056 210 78 188.944 78 163Z" fill="#F24E1E"/>
<path d="M172 116H219C244.944 116 266 137.056 266 163C266 188.944 244.944 210 219 210H172V116Z" fill="#FF7262"/>
<path d="M266 257C266 282.944 244.944 304 219 304C193.056 304 172 282.944 172 257C172 231.056 193.056 210 219 210C244.944 210 266 231.056 266 257Z" fill="#1ABCFE"/>
</g>
<defs>
<filter id="filter0_f_214_4" x="-28" y="13" width="400" height="515" filterUnits="userSpaceOnUse" color-interpolation-filters="sRGB">
<feFlood flood-opacity="0" result="BackgroundImageFix"/>
<feBlend mode="normal" in="SourceGraphic" in2="BackgroundImageFix" result="shape"/>
<feGaussianBlur stdDeviation="42.5" result="effect1_foregroundBlur_214_4"/>
</filter>
<clipPath id="clip0_214_4">
<rect width="344" height="515" fill="white"/>
</clipPath>
</defs>
</svg>
