<svg width="102" height="102" viewBox="0 0 102 102" fill="none" xmlns="http://www.w3.org/2000/svg">
<g filter="url(#filter0_d_102_25)">
<path fill-rule="evenodd" clip-rule="evenodd" d="M13.1797 0H88.8203C93.8901 0 98 4.10989 98 9.17969V84.8203C98 89.8901 93.8901 94 88.8203 94H13.1797C8.10989 94 4 89.8901 4 84.8203V9.17969C4 4.10989 8.10989 0 13.1797 0ZM62.1992 75.087V74.7227L61.8504 74.8034C61.9658 74.8996 62.0821 74.9941 62.1992 75.087ZM62.1992 75.087V83.9023C63.6863 84.6734 65.5039 85.2426 67.5234 85.6281C69.543 86.0137 71.7461 86.1973 73.9492 86.1973C76.1524 86.1973 78.1719 85.9953 80.1914 85.573C82.2109 85.1508 83.8633 84.4531 85.332 83.5535C86.8191 82.5805 88.0859 81.3504 88.8203 79.698C89.5547 78.0457 90.1238 76.2098 90.1238 73.823C90.1238 72.1523 89.8668 70.702 89.3711 69.4168C88.8754 68.1316 88.1594 67.0301 87.168 66.1121C86.2316 65.1391 85.1484 64.2762 83.8633 63.5418C82.5781 62.8074 81.1094 62.0363 79.457 61.3387C78.706 61.0314 78.0397 60.7313 77.3792 60.4338C76.9741 60.2513 76.5712 60.0698 76.1524 59.8883C75.1977 59.4109 74.3715 58.9336 73.7656 58.4562C73.0863 57.9605 72.5723 57.4465 72.2051 56.9141C71.8379 56.3633 71.6543 55.7574 71.6543 55.0781C71.6543 54.4539 71.8177 53.8848 72.15 53.3707C72.4823 52.8566 72.9395 52.4344 73.527 52.0672C74.1145 51.7 74.8488 51.4246 75.7301 51.2227C76.593 51.0207 77.5477 50.9289 78.6676 50.9289C79.4387 50.9289 80.2465 50.9858 81.0543 51.1015C81.8988 51.2171 82.7617 51.3952 83.6246 51.6339C84.4875 51.8726 85.332 52.1663 86.1949 52.5335C87.0027 52.9007 87.7555 53.323 88.3981 53.8003V45.1714C87.0027 44.639 85.4606 44.2351 83.8082 43.978C82.1559 43.721 80.3199 43.5925 78.1168 43.5925C75.9137 43.5925 73.8941 43.8312 71.8746 44.2902C69.8551 44.7491 68.2027 45.4835 66.734 46.4933C65.2469 47.4847 64.1637 48.6964 63.2457 50.3487C62.3828 51.8909 61.9606 53.6534 61.9606 55.8566C61.9606 58.6105 62.75 60.9972 64.3473 62.8331C65.9262 64.8527 68.3863 66.3214 71.5074 67.7902C72.607 68.2364 73.5959 68.6826 74.5583 69.1168C74.7046 69.1828 74.8503 69.2486 74.9957 69.314C76.0973 69.8097 77.0152 70.3237 77.7496 70.8562C78.5391 71.3886 79.1633 71.9761 79.5856 72.6003C80.0445 73.2245 80.2832 73.9589 80.2832 74.8034C80.2832 75.3909 80.14 75.9417 79.8609 76.4558C79.5819 76.9698 79.1449 77.4105 78.5574 77.7777C77.9699 78.1448 77.2539 78.4386 76.3543 78.6589C75.4914 78.8609 74.5184 78.971 73.2332 78.971C71.2137 78.971 69.1941 78.6222 67.3582 77.9245C65.4797 77.2756 63.76 76.3248 62.1992 75.087ZM58.5273 52.1406H46.7773V85.7383H37.4141V52.1406H25.6641V44.6133H58.5273V52.1406Z" fill="white"/>
</g>
<defs>
<filter id="filter0_d_102_25" x="0" y="0" width="102" height="102" filterUnits="userSpaceOnUse" color-interpolation-filters="sRGB">
<feFlood flood-opacity="0" result="BackgroundImageFix"/>
<feColorMatrix in="SourceAlpha" type="matrix" values="0 0 0 0 0 0 0 0 0 0 0 0 0 0 0 0 0 0 127 0" result="hardAlpha"/>
<feOffset dy="4"/>
<feGaussianBlur stdDeviation="2"/>
<feComposite in2="hardAlpha" operator="out"/>
<feColorMatrix type="matrix" values="0 0 0 0 0 0 0 0 0 0 0 0 0 0 0 0 0 0 0.1 0"/>
<feBlend mode="normal" in2="BackgroundImageFix" result="effect1_dropShadow_102_25"/>
<feBlend mode="normal" in="SourceGraphic" in2="effect1_dropShadow_102_25" result="shape"/>
</filter>
</defs>
</svg>
